<svg version="1.1" id="Layer_1" xmlns="http://www.w3.org/2000/svg" xmlns:xlink="http://www.w3.org/1999/xlink" x="0px" y="0px"
	 width="100%" viewBox="0 0 704 560" enable-background="new 0 0 704 560" xml:space="preserve">
<path fill="#000000" opacity="1.000000" stroke="none" 
	d="
M109.487846,307.810059 
	C112.387505,303.351135 116.302788,301.856750 121.129417,301.566742 
	C127.586807,301.178802 134.026718,300.379150 140.447800,299.551971 
	C144.408630,299.041718 145.382767,295.954620 142.586151,292.718506 
	C137.357666,286.668365 131.973236,280.753174 126.674538,274.763397 
	C125.239845,273.141602 123.840424,271.485077 122.491882,269.791107 
	C112.512993,257.256012 115.176796,248.191544 130.344803,243.106415 
	C139.494965,240.038773 148.882965,237.834625 158.212112,235.408081 
	C160.162430,234.900803 162.662018,235.140793 163.956421,232.749634 
	C163.496841,230.361282 161.308990,229.521423 159.670334,228.266235 
	C149.208557,220.252701 139.024445,211.933746 130.124527,202.154984 
	C127.865120,199.672470 125.953720,196.975052 124.665695,193.851654 
	C121.913307,187.177216 123.835159,181.077713 130.247467,177.767059 
	C140.981659,172.225021 152.808899,169.887192 164.326355,166.665085 
	C166.688797,166.004150 169.193954,165.710602 171.214691,164.197311 
	C171.094894,161.639984 169.146973,160.631531 167.815338,159.272171 
	C157.673325,148.918945 147.201279,138.873505 138.178070,127.480995 
	C129.992294,117.145775 132.502411,108.201859 144.935623,103.923492 
	C155.681061,100.225906 166.869583,98.659599 178.144714,97.646217 
	C183.086304,97.202080 188.024231,96.717262 193.106049,96.237488 
	C193.801407,93.199501 191.880905,91.055313 190.826523,88.762009 
	C185.333542,76.814735 179.755661,64.895683 176.370972,52.135326 
	C173.163116,40.041656 179.803192,33.330341 192.346130,35.103447 
	C210.248947,37.634239 227.356079,42.875645 244.195892,49.208744 
	C249.542648,51.219547 249.674347,51.054081 250.739792,45.210949 
	C251.929474,38.686481 253.223083,32.179283 254.582352,25.687790 
	C256.781219,15.186708 264.071747,10.704712 274.462189,13.212010 
	C280.745361,14.728194 286.168518,17.927534 291.439667,21.460011 
	C294.067780,23.221245 296.884033,24.834108 299.124390,27.017658 
	C307.093262,34.784344 316.209045,37.270622 327.501587,37.027805 
	C352.967651,36.480221 375.166168,45.562363 392.586060,64.532677 
	C397.814514,70.226425 403.954193,72.006721 411.081207,72.697403 
	C421.979187,73.753532 432.937714,74.518013 443.655762,76.874985 
	C453.502533,79.040344 462.811676,82.737282 470.763550,89.053123 
	C474.433502,91.968002 478.231018,92.757660 482.743317,92.750244 
	C541.237488,92.654007 599.731934,92.657623 658.226257,92.704659 
	C676.320557,92.719208 689.987854,103.392075 693.752991,120.321640 
	C694.251831,122.564384 694.316101,124.938240 694.318848,127.251678 
	C694.365662,166.747757 693.758911,206.255676 694.519348,245.737427 
	C695.889648,316.884216 694.814148,388.028320 695.204590,459.171936 
	C695.297974,476.185120 685.758972,488.522858 670.034607,492.692169 
	C667.385193,493.394684 664.756958,493.330048 662.105469,493.331665 
	C601.111389,493.369049 540.116943,493.268707 479.123535,493.481628 
	C460.639404,493.546173 442.160645,494.516205 423.676300,493.377533 
	C409.102509,492.479706 395.684784,478.478516 395.663574,463.869507 
	C395.619049,433.205872 395.652863,402.542145 395.642517,371.878448 
	C395.639984,364.339447 390.175903,360.022278 382.935211,361.909576 
	C375.852814,363.755646 368.872375,365.945862 361.345856,364.627319 
	C358.431427,364.116699 356.834869,365.965118 357.495300,368.883759 
	C360.136902,380.558197 359.268555,392.396454 359.306824,404.189850 
	C359.314697,406.611206 359.763458,408.658325 361.273987,410.672058 
	C371.330383,424.078400 372.544708,439.435333 370.802979,455.371460 
	C369.329773,468.850281 365.273743,481.618622 359.583130,493.477631 
	C360.918091,495.681244 362.744141,495.594604 364.305237,495.987030 
	C381.639832,500.344360 393.439240,510.831970 399.281555,527.765564 
	C400.331543,530.808838 402.011169,531.717773 405.123077,531.830627 
	C428.551483,532.680481 451.972473,533.776428 475.248901,536.752808 
	C480.330261,537.402527 485.509949,538.020447 490.122559,540.594849 
	C491.581940,541.409424 493.134033,542.364014 493.061279,544.301270 
	C492.989227,546.219788 491.428253,547.161926 489.897980,547.833069 
	C484.046967,550.399292 477.769989,551.429077 471.525696,552.234131 
	C445.789673,555.552246 419.952271,557.447876 394.004669,558.477356 
	C335.543945,560.796692 277.075836,560.312805 218.604660,559.813232 
	C198.790878,559.643860 178.968658,559.105042 159.175873,558.184937 
	C134.622040,557.043579 110.019920,556.124512 85.791611,551.364807 
	C84.327957,551.077209 82.865616,550.743225 81.440742,550.306519 
	C78.707100,549.468811 75.815643,548.695496 75.764824,545.009338 
	C75.712646,541.223999 78.503304,539.932922 81.427933,538.975037 
	C87.300110,537.051697 93.444824,536.405579 99.530922,535.761292 
	C108.614761,534.799805 117.745628,534.257141 126.865524,533.678772 
	C129.258591,533.527039 130.473358,532.757996 130.761673,530.225098 
	C131.644241,522.471619 132.650482,514.729614 135.259567,507.304962 
	C136.448410,503.921875 134.465515,502.952393 131.607864,502.332428 
	C121.200279,500.074463 111.001740,497.149872 101.063385,493.228394 
	C72.178955,481.831055 50.375454,462.229462 34.822777,435.680481 
	C21.495590,412.930542 13.013577,388.522827 13.787295,361.774536 
	C14.400446,340.577301 19.138500,320.275452 29.644390,301.593292 
	C31.360554,298.541473 33.303902,295.660034 35.621918,293.000702 
	C39.935181,288.052368 44.850376,285.136322 51.784180,286.491669 
	C59.317795,287.964233 63.288467,292.931793 65.164207,299.756378 
	C66.876205,305.985229 68.018570,312.373627 69.331596,318.708374 
	C70.958374,326.556824 73.128944,334.206390 76.995377,341.293762 
	C83.126198,352.531952 92.314362,359.208099 105.320793,359.568176 
	C113.781158,359.802429 118.778709,352.688782 116.524284,344.638153 
	C113.881897,335.202087 110.324059,326.036285 108.410027,316.377869 
	C107.823051,313.415924 108.082565,310.795227 109.487846,307.810059 
M298.516937,360.550293 
	C305.973297,362.287720 308.875641,369.355621 313.903839,374.141846 
	C315.475952,372.434418 315.528503,370.657288 315.678619,368.820343 
	C315.987091,365.045502 314.735504,361.608002 313.750519,358.086304 
	C313.127594,355.859131 312.267212,353.406830 314.576385,351.637512 
	C316.641479,350.055237 319.028595,350.426392 321.226410,351.438599 
	C324.662415,353.021057 328.027222,354.758026 331.541046,356.488037 
	C330.944153,348.686737 326.423370,343.732117 317.701294,341.465973 
	C307.419037,338.794495 296.939819,338.789490 286.474579,339.906860 
	C280.439453,340.551208 274.146912,340.708771 270.263367,335.769348 
	C262.567505,325.981018 257.738800,314.637329 255.725006,302.259308 
	C255.361359,300.024109 255.155121,297.265076 257.755707,296.071259 
	C260.568054,294.780182 262.395233,296.882385 264.155823,298.719513 
	C270.174774,305.000153 275.193604,312.057281 280.116699,319.191986 
	C281.354309,320.985596 282.538818,322.321259 285.287598,322.228699 
	C299.762878,321.741211 314.256439,321.485718 328.235809,326.368408 
	C328.765656,326.553467 329.455719,326.279755 329.984955,326.228241 
	C330.723602,324.863892 330.371582,323.770813 330.136353,322.619171 
	C325.716217,300.979950 321.500000,279.303986 320.645691,257.154419 
	C320.441681,251.864258 317.341583,250.327652 312.808502,250.440018 
	C305.119934,250.630585 297.499664,249.910065 290.033691,248.237961 
	C271.121307,244.002274 256.672455,234.281876 250.554260,214.864502 
	C249.315430,210.932770 248.675186,206.897385 250.433578,202.558472 
	C254.338089,204.378891 256.352234,207.783020 258.783722,210.568008 
	C271.082306,224.654526 286.573120,231.494186 305.116791,232.921936 
	C313.428497,233.561890 321.743561,233.202988 330.037140,234.108093 
	C344.319519,235.666763 357.993347,239.836670 371.868256,243.175842 
	C383.327667,245.933701 394.809723,247.430084 406.124634,242.477600 
	C410.024872,240.770477 413.325012,238.462097 414.277679,233.986130 
	C412.493225,232.178162 410.344543,231.709488 408.330933,230.962982 
	C396.318970,226.509888 384.332428,221.987000 372.293671,217.607605 
	C354.699036,211.207138 338.761719,201.273514 321.613953,193.948624 
	C311.263855,189.527451 302.346924,183.475693 295.733612,174.242722 
	C293.888580,171.666840 291.636841,169.992081 288.086151,170.981873 
	C285.223633,171.779816 282.722351,170.942551 281.488678,167.990417 
	C280.196259,164.897659 282.019897,162.775772 284.294952,161.249420 
	C291.034668,156.727646 298.343445,153.653519 306.629456,153.673828 
	C309.529694,153.680939 313.095459,152.789108 314.566101,156.306030 
	C316.040741,159.832367 312.780304,161.590408 310.855469,163.756149 
	C310.654358,163.982437 310.624969,164.361359 310.347778,165.144379 
	C314.189697,170.801193 320.084381,174.132507 326.257263,177.045135 
	C344.031860,185.431976 363.280212,187.665680 382.436554,189.441803 
	C407.284332,191.745590 432.211945,192.770691 457.208984,190.737396 
	C475.344421,189.262207 483.805389,182.027405 484.567932,165.251617 
	C484.921997,157.462494 484.885162,149.668045 483.701355,141.856201 
	C480.053284,117.783440 463.631989,98.786179 440.877930,93.914139 
	C430.517029,91.695694 419.897705,90.540421 409.340729,89.419952 
	C397.829865,88.198227 387.645691,85.499588 379.413300,76.045036 
	C368.534058,63.550716 354.056519,56.558624 337.405975,55.495872 
	C318.894897,54.314369 300.551483,56.009296 282.469177,60.521606 
	C231.615768,73.211716 200.947189,107.545990 194.192261,158.725708 
	C191.522034,178.957108 188.909821,199.204819 185.990814,219.398468 
	C181.517242,250.346802 171.905945,279.885620 159.534531,308.548553 
	C143.651047,345.348450 124.541771,380.809845 113.467491,419.607819 
	C112.934807,421.474060 112.443047,424.006195 110.041267,423.961060 
	C107.294136,423.909424 107.151962,421.176025 106.670799,419.119751 
	C104.054581,407.939240 106.526810,396.974915 108.272629,386.013306 
	C109.286003,379.650543 108.748672,378.808807 102.238075,378.356384 
	C93.612106,377.756897 85.625839,375.118927 78.389908,370.354340 
	C66.674606,362.640320 60.323902,351.125122 55.664520,338.361877 
	C52.132561,328.686951 50.728004,318.490936 47.713123,308.543823 
	C28.291449,342.682709 26.563934,377.909119 43.707333,413.134155 
	C62.828190,452.422363 95.014046,475.142700 138.338028,483.376007 
	C139.396927,469.466217 133.241730,455.991669 139.903427,442.895935 
	C143.301483,448.199341 145.707123,453.764893 148.522964,459.114502 
	C155.720840,472.789215 157.047333,487.141144 154.568481,502.214996 
	C153.584351,508.199280 151.192673,513.679932 149.818542,519.493164 
	C147.007690,531.384216 150.726425,538.290771 161.237442,538.477600 
	C182.724365,538.859436 204.230698,538.779175 225.716446,538.311584 
	C235.395325,538.101013 235.394760,537.464417 230.153458,529.317566 
	C229.240448,527.898315 227.995773,526.515625 229.418732,524.860352 
	C230.537064,523.559509 232.054276,523.814331 233.586533,524.269531 
	C239.521347,526.032654 244.457291,529.209106 248.120438,534.261169 
	C249.181229,535.724121 249.973618,537.620300 252.102264,537.727295 
	C256.696869,537.957947 261.315521,538.348145 266.210541,537.192383 
	C265.460754,533.923706 263.832611,531.458496 262.008179,529.119324 
	C254.566696,519.578430 244.549377,514.542847 232.852585,512.301819 
	C227.892212,511.351440 222.921478,511.406372 217.931015,511.361267 
	C216.241638,511.346039 214.480255,511.343689 213.909454,509.247742 
	C213.376083,507.289093 214.583466,506.049683 215.982315,505.084595 
	C217.898422,503.762634 219.931625,502.610352 221.914520,501.385132 
	C228.044617,497.597290 233.813416,493.437805 237.822052,487.229187 
	C248.314224,470.978882 251.080658,453.332733 246.835632,434.670288 
	C243.227814,418.809204 232.550125,407.937408 219.891830,398.706512 
	C213.946014,394.370605 207.221512,391.359497 200.925674,387.620758 
	C199.252838,386.627350 197.369370,385.229279 198.168320,382.849548 
	C198.876801,380.739227 200.979355,380.639221 202.815689,380.779907 
	C214.730286,381.692963 226.178055,384.182983 236.274277,391.045593 
	C261.745605,408.358795 270.367401,436.528992 265.790710,464.486176 
	C264.368378,473.174347 261.397308,481.419434 258.095764,490.003845 
	C262.748413,490.272278 266.625336,489.447784 270.464142,488.636078 
	C290.686279,484.360046 308.955566,476.439026 321.678925,459.266235 
	C339.270508,435.522766 342.813782,408.125092 341.534180,379.610596 
	C341.414917,376.952789 340.035217,375.318176 337.053497,375.379639 
	C334.336609,375.435638 331.782928,375.113525 331.033752,378.910583 
	C330.256622,382.849548 328.376526,386.432343 325.837402,389.604889 
	C319.181061,397.921692 308.966858,397.695892 302.906158,389.086304 
	C301.660065,387.316132 300.454773,385.515320 299.284088,383.694305 
	C296.318695,379.081604 292.447998,377.482666 286.914337,378.893402 
	C278.615051,381.009216 270.141663,380.991394 261.670776,379.636169 
	C242.155212,376.513916 213.960526,348.641296 213.488708,326.411041 
	C213.420746,323.209778 210.940491,318.903290 214.617798,317.386627 
	C218.434784,315.812439 219.842087,320.721039 221.607162,323.186615 
	C228.894714,333.366425 236.490341,343.112946 246.044937,351.436310 
	C258.347809,362.153778 271.591370,366.389038 287.463989,361.153473 
	C290.685059,360.091034 294.183319,358.974121 298.516937,360.550293 
M573.500000,250.728790 
	C605.657776,250.730087 637.815857,250.662430 669.972961,250.815720 
	C674.228455,250.836014 675.839844,249.801895 675.748169,245.258575 
	C675.472595,231.600754 675.576782,217.933228 675.696106,204.270920 
	C675.724365,201.045609 675.074890,199.019867 671.340088,199.461975 
	C662.352234,200.525940 653.368774,199.226929 644.378479,199.346817 
	C641.234863,199.388748 638.982788,200.369598 637.126160,202.838608 
	C633.222961,208.029251 629.245483,213.165344 625.231079,218.270813 
	C620.356140,224.470703 614.317688,224.093933 610.490479,217.250702 
	C602.850098,203.589417 595.339050,189.855804 587.735535,176.173798 
	C586.879395,174.633286 586.468445,172.693359 584.491638,171.906006 
	C582.630188,173.010834 582.006592,174.981445 581.046021,176.687393 
	C574.018921,189.166885 566.718262,201.504105 560.086365,214.190674 
	C554.551758,224.778076 547.346191,225.393753 540.302307,215.130203 
	C538.233398,212.115723 535.821777,209.332932 533.515259,206.486069 
	C531.041382,203.432800 529.177063,199.819733 525.841125,197.632477 
	C523.923828,198.451630 523.277161,200.068848 522.364624,201.425751 
	C517.903259,208.059830 513.472290,214.714371 509.029846,221.361191 
	C507.713776,223.330338 506.349792,225.281891 503.641052,225.291016 
	C497.143585,225.312927 490.633392,225.528732 484.153046,225.191513 
	C480.101562,224.980698 477.816833,222.096329 477.822205,218.134506 
	C477.827728,214.049606 479.864899,211.096405 484.312927,210.708038 
	C486.795380,210.491272 489.350861,210.303268 491.797272,210.645996 
	C497.245483,211.409332 500.332184,208.900635 502.991608,204.377228 
	C507.967896,195.913101 513.382019,187.699783 518.793213,179.500397 
	C522.189331,174.354324 527.687134,174.109268 531.771606,178.743057 
	C533.197205,180.360336 534.378235,182.193253 535.669189,183.929001 
	C540.001465,189.753784 544.333008,195.579163 548.637146,201.367050 
	C551.111023,200.004181 551.806152,198.050323 552.744385,196.344864 
	C560.772461,181.752701 568.738586,167.126465 576.751648,152.526016 
	C578.460449,149.412521 580.243164,146.485428 584.576416,146.587372 
	C588.770752,146.686035 590.721619,149.372604 592.453430,152.543777 
	C600.276062,166.868240 608.096069,181.194107 615.945251,195.504013 
	C616.880310,197.208755 617.420837,199.268112 619.848633,200.232605 
	C622.730347,198.300247 624.572876,195.203827 626.218018,192.272507 
	C630.374268,184.866699 636.687927,183.687531 644.421387,184.209656 
	C653.213379,184.803268 662.069153,184.399582 670.893555,184.593185 
	C674.508911,184.672516 675.780762,183.393616 675.731628,179.627716 
	C675.525269,163.816971 675.595764,148.002121 675.628601,132.188889 
	C675.657410,118.288208 668.772522,111.383423 654.748413,111.381783 
	C602.261108,111.375656 549.773804,111.365791 497.286469,111.393814 
	C495.538483,111.394745 493.630005,110.819458 491.650391,112.501335 
	C495.859589,121.788307 499.258972,131.444214 500.871002,141.664917 
	C503.331665,157.265884 502.918335,172.572586 495.779572,186.999496 
	C491.479736,195.689163 485.893097,203.156418 475.296936,205.085907 
	C462.346069,207.444168 449.334259,209.096100 436.176605,209.285721 
	C424.298950,209.456909 412.416901,209.321869 402.516663,209.321869 
	C409.040924,212.089966 417.634521,215.620361 426.125061,219.383270 
	C430.951630,221.522339 433.603729,225.223602 433.371277,230.794510 
	C432.892456,242.268753 427.453644,250.707596 417.656769,256.311096 
	C414.490662,258.121979 413.247589,260.287689 413.301331,263.897247 
	C413.470062,275.225250 413.496674,286.560272 413.271912,297.886505 
	C413.196503,301.685852 414.352295,303.960205 417.752136,305.857788 
	C425.030518,309.920258 430.136230,316.026917 431.869080,324.334503 
	C433.351562,331.441650 432.288818,338.188965 425.835663,342.572937 
	C422.841888,344.606750 422.144165,346.715790 422.482849,350.031616 
	C423.177582,356.833740 421.731628,363.002197 415.786743,367.263855 
	C413.769562,368.709900 413.326080,370.579620 413.329254,372.888550 
	C413.369293,401.881470 413.302368,430.874664 413.401642,459.867310 
	C413.424377,466.505676 416.649811,471.513641 423.024353,473.631897 
	C430.552032,476.133392 438.300751,474.990753 446.883148,474.543854 
	C443.511780,467.382111 443.542480,460.607300 443.619720,453.790833 
	C443.736786,443.461273 443.791809,433.127014 443.604218,422.799652 
	C443.497711,416.937103 444.754669,411.531281 447.922943,406.673431 
	C449.307709,404.550232 449.306854,402.989716 447.997253,400.823639 
	C444.733765,395.425873 443.554688,389.454193 443.627502,383.137695 
	C443.750458,372.475067 443.809753,361.806793 443.592163,351.147064 
	C443.467926,345.062042 445.024353,339.531433 448.411743,334.678009 
	C450.108643,332.246765 449.860413,330.715271 448.289185,328.573669 
	C444.838226,323.869995 443.413818,318.636841 443.551605,312.669769 
	C443.855408,299.513275 443.680084,286.344818 443.619629,273.181610 
	C443.606384,270.293793 444.010468,267.549652 445.201385,264.923401 
	C449.852142,254.667709 458.479156,250.837601 469.025421,250.796600 
	C503.516510,250.662537 538.008423,250.735077 573.500000,250.728790 
M564.500000,321.978668 
	C595.821899,321.967255 627.143860,321.979736 658.465698,321.930634 
	C668.566467,321.914825 671.640320,318.795349 671.647278,308.863861 
	C671.653809,299.533905 671.655090,290.203949 671.646667,280.873993 
	C671.637573,270.735077 668.291931,267.362732 658.218079,267.362335 
	C621.897888,267.360962 585.577759,267.365723 549.257568,267.373383 
	C523.933411,267.378723 498.609192,267.364899 473.285126,267.418182 
	C464.950836,267.435730 460.591370,271.143890 460.425446,278.738220 
	C460.210815,288.562561 460.241882,298.399811 460.502441,308.222656 
	C460.588287,311.459229 460.764587,314.894348 462.863556,317.766510 
	C465.420990,321.265930 469.021271,321.883057 473.034546,321.882294 
	C503.189697,321.876404 533.344849,321.938965 564.500000,321.978668 
M463.035370,465.289978 
	C466.386414,469.415710 471.174408,469.593933 475.813110,469.554474 
	C486.127380,469.466644 496.449677,469.459747 506.752228,469.305389 
	C535.394348,468.876099 564.032043,469.183258 592.670654,469.094513 
	C614.478882,469.026917 636.288757,468.775085 658.096008,469.491272 
	C667.290527,469.793243 671.633179,465.379395 671.646118,456.312469 
	C671.659729,446.820068 671.654846,437.327576 671.645996,427.835144 
	C671.636658,417.827362 668.825378,414.924622 658.975098,414.928711 
	C609.681458,414.949097 560.387817,414.989929 511.094147,415.034729 
	C497.605469,415.046997 484.116180,415.028931 470.628571,415.164612 
	C465.250092,415.218719 461.603455,417.849915 461.492859,422.433472 
	C461.183685,435.246368 461.312286,448.070862 461.380493,460.890198 
	C461.387146,462.141876 462.172394,463.389374 463.035370,465.289978 
M594.500061,341.324219 
	C554.180603,341.341156 513.861145,341.342194 473.541656,341.388153 
	C465.245728,341.397614 461.288147,345.102631 461.213348,352.977356 
	C461.118378,362.972626 461.106018,372.970581 461.225891,382.965363 
	C461.332306,391.836456 464.586609,394.952087 473.381165,394.940002 
	C491.874390,394.914612 510.367737,394.806152 528.860840,394.845856 
	C572.675598,394.939911 616.490295,395.086731 660.304871,395.248352 
	C667.329163,395.274261 671.561523,391.342499 671.624023,384.235474 
	C671.710449,374.406311 671.655762,364.575806 671.644653,354.745880 
	C671.633667,345.055450 668.033386,341.352783 658.478271,341.338715 
	C637.485535,341.307800 616.492859,341.326019 594.500061,341.324219 
M339.451721,508.362885 
	C338.785095,508.362457 338.107117,508.441254 337.453888,508.347534 
	C334.948425,507.987976 331.534454,509.642334 330.217224,506.596527 
	C329.067078,503.936981 332.049561,502.260437 333.505646,500.346008 
	C340.901825,490.621887 347.686340,480.532990 351.035553,468.617950 
	C353.974243,458.163361 356.330383,447.600342 352.962982,435.891815 
	C351.870361,438.715393 351.106354,440.728058 350.314514,442.729797 
	C345.520233,454.849762 340.173401,466.677856 331.438721,476.584747 
	C317.352631,492.561249 299.236389,501.446472 278.862061,506.394562 
	C275.795410,507.139343 272.324677,507.020386 269.371307,509.742859 
	C275.709351,516.113464 280.795380,523.051636 284.430450,530.981262 
	C285.088287,532.416260 286.404358,532.630249 287.793884,532.629272 
	C308.459381,532.614624 329.125336,532.670532 349.789948,532.526794 
	C354.247925,532.495789 355.172150,530.148071 352.612244,526.327515 
	C352.061188,525.505127 351.284821,524.837280 350.658112,524.061157 
	C349.637085,522.796814 348.047516,521.535706 349.439819,519.748718 
	C350.629791,518.221436 352.495911,518.526733 354.088409,518.990173 
	C359.002930,520.420288 363.139893,523.069519 366.475189,527.022400 
	C370.848999,532.206116 374.128418,532.978577 381.114441,530.525452 
	C379.703979,523.435120 374.981842,518.893799 369.132843,515.481262 
	C360.298431,510.326813 350.521667,508.540741 339.451721,508.362885 
M375.023773,304.349792 
	C380.572083,302.596283 386.089935,300.684753 392.005127,300.629852 
	C394.842346,300.603485 395.679962,299.047150 395.662994,296.446808 
	C395.601013,286.947845 395.584290,277.447754 395.666870,267.949127 
	C395.693665,264.868530 394.643341,263.316895 391.336945,263.361816 
	C379.735229,263.519379 368.640259,260.584045 357.511536,257.756653 
	C351.448486,256.216309 345.453156,254.170593 339.269836,253.852631 
	C337.935089,255.625702 338.239655,257.370789 338.419739,258.959747 
	C339.241730,266.212158 340.704285,273.428436 340.988129,280.694763 
	C341.255066,287.528046 344.385742,291.741333 350.015747,294.990906 
	C353.893799,297.229248 357.536530,299.941315 361.038147,302.748840 
	C365.176331,306.066742 369.387970,307.355347 375.023773,304.349792 
M354.912445,344.670898 
	C363.673676,349.201691 372.399902,347.015991 380.996124,344.271790 
	C386.637329,342.470978 391.670227,343.085571 396.719727,346.089294 
	C399.335358,347.645172 401.816589,349.728912 405.141510,350.226868 
	C406.100433,347.947693 404.824188,346.438019 404.051056,344.872467 
	C402.411865,341.553223 399.848297,338.915802 397.507538,336.103760 
	C396.186096,334.516296 394.157501,332.904022 395.408234,330.451904 
	C396.608795,328.098175 398.977356,327.698486 401.397400,327.667053 
	C405.499451,327.613831 409.600708,327.585175 414.007324,328.387878 
	C413.969299,324.698761 411.843140,322.940521 409.518677,321.332947 
	C401.560486,315.829285 392.927002,316.401520 384.772888,319.952515 
	C371.135559,325.891266 358.552246,327.681732 347.626648,314.076263 
	C348.245697,320.946259 349.062653,327.116486 350.503601,333.137360 
	C351.406982,336.912048 351.255432,341.160706 354.912445,344.670898 
M173.796967,138.652283 
	C175.069077,139.644409 176.064835,141.100922 178.384537,141.169800 
	C181.103165,132.894180 183.847488,124.540367 186.864334,115.356987 
	C176.118378,115.673615 166.597580,117.907326 155.462631,120.082603 
	C162.023026,126.738052 167.658432,132.455124 173.796967,138.652283 
M210.654922,78.848114 
	C216.777588,73.563583 222.900269,68.279053 229.648407,62.454678 
	C218.815155,57.834484 208.181564,55.829170 196.252899,54.722672 
	C199.995285,63.213451 203.309952,70.793396 206.686035,78.345901 
	C207.405563,79.955566 208.539734,80.731094 210.654922,78.848114 
M147.644470,191.322281 
	C147.478287,191.591339 147.111206,192.030563 147.174484,192.105240 
	C153.137054,199.143570 159.945755,205.203598 168.196854,210.853500 
	C170.105103,201.539047 170.658112,192.983185 171.640121,183.831421 
	C163.065262,185.668594 155.569794,188.151825 147.644470,191.322281 
M155.523209,255.645462 
	C150.331665,257.390594 144.608124,257.687622 139.505341,261.170929 
	C143.964767,265.464935 147.267899,270.211182 152.307480,273.478394 
	C155.878677,268.486450 156.728958,262.987457 158.561340,257.896790 
	C159.301514,255.840439 158.110046,255.207581 155.523209,255.645462 
M283.150604,40.810307 
	C281.266449,35.729916 276.493408,34.934208 272.081238,32.510883 
	C271.528198,36.541405 268.882812,40.143700 271.070160,42.682640 
	C273.316925,45.290543 276.821381,42.248795 279.796539,41.888218 
	C280.761597,41.771259 281.694092,41.385777 283.150604,40.810307 
M129.482361,319.518341 
	C127.838135,322.325439 127.856010,322.400482 131.049622,325.638245 
	C133.142960,324.301575 133.938065,322.333740 134.168655,320.079254 
	C132.717987,319.018372 131.359055,319.478210 129.482361,319.518341 
z"/>
<path fill="#000000" opacity="1.000000" stroke="none" 
	d="
M316.200989,80.677864 
	C330.123901,81.184662 338.985535,93.566772 336.070770,107.969666 
	C335.071869,112.905571 333.136292,117.523491 330.200043,121.633537 
	C324.528351,129.572433 314.365204,130.619720 307.090179,124.103821 
	C298.908142,116.775574 297.091522,104.281380 302.166260,92.314339 
	C304.815460,86.067062 308.553162,81.430214 316.200989,80.677864 
z"/>
<path fill="#000000" opacity="1.000000" stroke="none" 
	d="
M431.403748,130.200867 
	C430.102936,122.972496 433.564972,119.954491 440.003265,122.204247 
	C445.619659,124.166794 451.076263,131.464310 451.332092,137.355118 
	C451.600189,143.528503 447.695679,146.328796 442.058441,143.685181 
	C436.510437,141.083389 433.082520,136.529816 431.403748,130.200867 
z"/>
<path fill="#000000" opacity="1.000000" stroke="none" 
	d="
M554.000000,288.061798 
	C568.163452,288.063385 581.826965,288.062836 595.490417,288.067932 
	C596.989563,288.068481 598.496826,288.007751 599.986511,288.135742 
	C605.786194,288.634003 608.483398,291.205231 608.313599,295.975891 
	C608.148560,300.612885 605.070007,303.313324 599.465393,303.333313 
	C579.803223,303.403412 560.140686,303.377106 540.478333,303.380585 
	C537.312500,303.381134 534.141541,303.453644 530.981995,303.303436 
	C526.582581,303.094238 524.212158,300.355927 523.985291,296.267303 
	C523.762573,292.253510 525.465454,289.248505 530.051025,288.548615 
	C537.859253,287.356842 545.686646,288.290405 554.000000,288.061798 
z"/>
<path fill="#000000" opacity="1.000000" stroke="none" 
	d="
M503.511658,305.521729 
	C498.133514,310.548157 492.217255,311.102997 486.217468,308.224670 
	C480.354034,305.411743 478.236786,300.189148 478.636963,293.783752 
	C479.023010,287.605042 482.212646,283.638885 487.849976,281.453003 
	C493.873260,279.117493 501.212738,281.151794 504.867737,286.151062 
	C509.362305,292.298676 508.976196,299.074951 503.511658,305.521729 
z"/>
<path fill="#000000" opacity="1.000000" stroke="none" 
	d="
M654.291504,298.263214 
	C650.647766,303.852844 631.070251,305.281494 626.708435,300.579437 
	C623.242371,296.842957 624.336487,290.123444 629.050781,289.007385 
	C636.003418,287.361389 643.139832,287.205109 650.948486,289.324036 
	C644.251587,295.974457 652.558777,295.327820 654.291504,298.263214 
z"/>
<path fill="#000000" opacity="1.000000" stroke="none" 
	d="
M535.154602,434.649170 
	C556.609985,434.652313 577.584778,434.666504 598.559631,434.646240 
	C601.274109,434.643616 603.891907,434.778015 606.014954,436.782654 
	C608.163635,438.811554 608.834656,441.330994 608.057556,444.077942 
	C607.212036,447.066498 605.054382,448.905365 601.951172,449.197418 
	C599.308594,449.446136 596.630188,449.343262 593.967590,449.344330 
	C574.158020,449.352264 554.348511,449.355377 534.538940,449.342255 
	C527.081421,449.337341 524.665955,447.504608 524.673706,441.949036 
	C524.681274,436.527771 527.144470,434.729828 535.154602,434.649170 
z"/>
<path fill="#000000" opacity="1.000000" stroke="none" 
	d="
M481.873474,450.969879 
	C477.884552,445.190887 477.289368,439.510773 481.152435,433.920807 
	C484.840820,428.583588 490.279297,426.584900 496.479553,427.922607 
	C502.703613,429.265472 506.582977,433.397797 507.867340,439.787018 
	C508.880493,444.827301 506.191833,451.056335 501.616516,454.086578 
	C496.918610,457.197998 489.641907,457.169769 485.079987,453.940277 
	C484.001740,453.176880 483.100464,452.163422 481.873474,450.969879 
z"/>
<path fill="#000000" opacity="1.000000" stroke="none" 
	d="
M642.890137,449.297119 
	C639.263794,449.299988 636.111755,449.410736 632.969788,449.280029 
	C627.894409,449.068939 624.743408,446.056000 624.875244,441.744904 
	C625.002380,437.586487 628.030273,434.820557 632.888550,434.695221 
	C637.523926,434.575623 642.166077,434.604980 646.803040,434.688995 
	C652.017151,434.783386 655.291504,437.884674 655.170532,442.444458 
	C655.070862,446.205170 651.656677,449.019257 646.847229,449.268768 
	C645.690430,449.328796 644.528503,449.289948 642.890137,449.297119 
z"/>
<path fill="#000000" opacity="1.000000" stroke="none" 
	d="
M589.993286,375.382263 
	C570.855652,375.380371 552.216614,375.399567 533.577637,375.363373 
	C527.223877,375.351044 524.697266,373.162537 524.686401,367.898254 
	C524.676514,363.107758 527.403442,360.717865 533.409912,360.703064 
	C555.543640,360.648560 577.677612,360.651154 599.811279,360.721344 
	C605.682190,360.739990 609.199707,363.769043 609.066956,368.279419 
	C608.939148,372.621948 605.565063,375.270935 599.977600,375.355377 
	C596.816223,375.403168 593.653809,375.375397 589.993286,375.382263 
z"/>
<path fill="#000000" opacity="1.000000" stroke="none" 
	d="
M500.945740,355.705078 
	C507.606354,360.526154 509.761047,366.601318 507.429596,373.201172 
	C505.208771,379.487976 499.137634,383.575531 492.794006,383.055054 
	C486.153473,382.510193 480.488525,377.529755 479.134888,370.531097 
	C478.075104,365.051910 479.934204,360.250641 484.271088,356.802429 
	C489.303772,352.800964 494.891144,352.546082 500.945740,355.705078 
z"/>
<path fill="#000000" opacity="1.000000" stroke="none" 
	d="
M635.184082,360.664978 
	C639.306335,360.668640 642.953857,360.613129 646.598450,360.690643 
	C651.657227,360.798187 654.978699,363.644684 655.090698,367.842529 
	C655.198792,371.894196 651.663879,375.189819 646.849792,375.303101 
	C642.211792,375.412262 637.567444,375.405029 632.929138,375.302551 
	C627.739197,375.187897 624.827332,372.525848 624.690979,367.999390 
	C624.551697,363.376709 627.152405,361.000275 632.719421,360.679718 
	C633.380371,360.641693 634.045044,360.668457 635.184082,360.664978 
z"/>
</svg>